<svg xmlns="http://www.w3.org/2000/svg" viewBox="0 0 60 75" x="0px" y="0px"><path d="M28,0a28,28,0,1,0,6.134,55.309A4.208,4.208,0,0,0,36.31,56.7a2.218,2.218,0,0,1,1.2.806,4.188,4.188,0,0,0,3.938,1.631,2.224,2.224,0,0,1,1.424.285,4.211,4.211,0,0,0,4.255,0,2.237,2.237,0,0,1,1.421-.281,4.2,4.2,0,0,0,3.936-1.631,2.2,2.2,0,0,1,1.207-.806A4.211,4.211,0,0,0,56.7,53.69a2.218,2.218,0,0,1,.806-1.2,4.212,4.212,0,0,0,1.631-3.938,2.263,2.263,0,0,1,.284-1.425h0a4.212,4.212,0,0,0,0-4.255,2.221,2.221,0,0,1-.281-1.421,4.207,4.207,0,0,0-1.631-3.935,2.216,2.216,0,0,1-.806-1.208,4.19,4.19,0,0,0-1.393-2.171A27.958,27.958,0,0,0,28,0ZM52.3,20.451l.319-.8a25.806,25.806,0,0,1,.846,13.564,2.212,2.212,0,0,1-.977-.725,4.185,4.185,0,0,0-2.494-1.574c.491-1.254.952-2.489,1.344-3.668a2.518,2.518,0,0,0-.374-2.319A2.221,2.221,0,0,0,49.047,24a.98.98,0,0,1-.76-.308A.959.959,0,0,1,48,23a.977.977,0,0,1,.307-.713A.959.959,0,0,1,49,22h1A2.459,2.459,0,0,0,52.3,20.451Zm-.762-3.482-1.1,2.74A.475.475,0,0,1,50,20H49a2.994,2.994,0,0,0-2.126,5.108A2.965,2.965,0,0,0,49.121,26a.266.266,0,0,1,.241.131.534.534,0,0,1,.078.484c-.451,1.356-.984,2.78-1.566,4.232a2.247,2.247,0,0,1-.749-.27,4.217,4.217,0,0,0-4.255,0,2.217,2.217,0,0,1-1.421.281,4.213,4.213,0,0,0-3.912,1.6l-.005-.006A5.01,5.01,0,0,0,34,31a6,6,0,0,1-6-6.182A6.2,6.2,0,0,1,34.29,19h5.6a3.072,3.072,0,0,0,3.095-2.725A3.009,3.009,0,0,0,40,13H33.25a2.216,2.216,0,0,1-2.208-1.711,2.094,2.094,0,0,1,.266-1.516l4.021-6.714A26.118,26.118,0,0,1,51.537,16.969ZM17,4.449a25.727,25.727,0,0,1,5-1.742V4.68A1.011,1.011,0,0,1,21.4,5.6l-3,1.288a1,1,0,0,1-.95-.088A.985.985,0,0,1,17,5.97ZM7.529,12H10.81A1.186,1.186,0,0,1,12,13.19a1.21,1.21,0,0,1-.289.779L6.938,19.532A3.942,3.942,0,0,0,6,22.08,1.922,1.922,0,0,1,4.08,24H2.308A25.883,25.883,0,0,1,7.529,12ZM18,50.8V52A26.153,26.153,0,0,1,4.968,40.042l1.957-4.408A2.748,2.748,0,0,1,9.44,34a2.784,2.784,0,0,1,1.953.806l.27.271a4.685,4.685,0,0,0,1.86,1.152l4.741,1.58A3.993,3.993,0,0,1,21,41.6v3.6a2.344,2.344,0,0,1-1.051,1.965A4.342,4.342,0,0,0,18,50.8ZM28,54a25.882,25.882,0,0,1-8-1.265V50.8a2.344,2.344,0,0,1,1.051-1.965A4.342,4.342,0,0,0,23,45.2V41.6a5.989,5.989,0,0,0-4.1-5.688L14.152,34.33a2.7,2.7,0,0,1-1.074-.666l-.271-.272A4.8,4.8,0,0,0,9.44,32,4.747,4.747,0,0,0,5.1,34.824l-1.243,2.8A25.851,25.851,0,0,1,2,28c0-.674.034-1.339.085-2h2A3.924,3.924,0,0,0,8,22.08a1.934,1.934,0,0,1,.459-1.249l4.773-5.563A3.213,3.213,0,0,0,14,13.19,3.185,3.185,0,0,0,10.81,10H9.265A26.167,26.167,0,0,1,15,5.5V5.97a3.008,3.008,0,0,0,3,3,3.023,3.023,0,0,0,1.18-.241l3.006-1.293A3.012,3.012,0,0,0,24,4.68V2.308a26.086,26.086,0,0,1,9.306.238L29.6,8.727a4.043,4.043,0,0,0-.527,2.938A4.187,4.187,0,0,0,33.25,15H40a.976.976,0,0,1,.712.306.949.949,0,0,1,.282.789,1.08,1.08,0,0,1-1.1.905h-5.6A8.209,8.209,0,0,0,26,24.763,8,8,0,0,0,34,33a3,3,0,0,1,1.683.52A4.2,4.2,0,0,0,33.3,36.31a2.218,2.218,0,0,1-.806,1.2,4.212,4.212,0,0,0-1.631,3.938,2.221,2.221,0,0,1-.284,1.424,4.21,4.21,0,0,0,0,4.255,2.227,2.227,0,0,1,.281,1.421,4.209,4.209,0,0,0,1.631,3.936,2.2,2.2,0,0,1,.725.977A25.98,25.98,0,0,1,28,54ZM56.3,39.109a2.208,2.208,0,0,1,.855,2.065,4.24,4.24,0,0,0,.539,2.713,2.2,2.2,0,0,1,0,2.226l0,.009a4.232,4.232,0,0,0-.535,2.7,2.211,2.211,0,0,1-.856,2.065,4.229,4.229,0,0,0-1.536,2.3,2.213,2.213,0,0,1-1.58,1.579,4.207,4.207,0,0,0-2.3,1.535,2.231,2.231,0,0,1-2.065.855,4.245,4.245,0,0,0-2.713.539,2.2,2.2,0,0,1-2.235,0,4.226,4.226,0,0,0-2.13-.575,4.274,4.274,0,0,0-.575.04,2.224,2.224,0,0,1-2.065-.856,4.229,4.229,0,0,0-2.3-1.536,2.213,2.213,0,0,1-1.579-1.58,4.207,4.207,0,0,0-1.535-2.3,2.208,2.208,0,0,1-.855-2.065,4.24,4.24,0,0,0-.539-2.713,2.2,2.2,0,0,1,0-2.235,4.232,4.232,0,0,0,.535-2.7,2.211,2.211,0,0,1,.856-2.065,4.229,4.229,0,0,0,1.536-2.3,2.213,2.213,0,0,1,1.58-1.579,4.207,4.207,0,0,0,2.3-1.535,2.235,2.235,0,0,1,2.065-.855,4.268,4.268,0,0,0,2.713-.539,2.2,2.2,0,0,1,2.235,0,4.226,4.226,0,0,0,2.7.535,2.224,2.224,0,0,1,2.065.856,4.229,4.229,0,0,0,2.3,1.536,2.213,2.213,0,0,1,1.579,1.58A4.214,4.214,0,0,0,56.3,39.109Z"/><path d="M45,35A10,10,0,1,0,55,45,10.011,10.011,0,0,0,45,35Zm0,18a8,8,0,1,1,8-8A8.009,8.009,0,0,1,45,53Z"/><path d="M47.293,42.293,43,46.586l-.293-.293a1,1,0,0,0-1.414,1.414l1,1a1,1,0,0,0,1.414,0l5-5a1,1,0,0,0-1.414-1.414Z"/><text x="0" y="75" fill="#000000" font-size="5px" font-weight="bold" font-family="'Helvetica Neue', Helvetica, Arial-Unicode, Arial, Sans-serif"></text><text x="0" y="80" fill="#000000" font-size="5px" font-weight="bold" font-family="'Helvetica Neue', Helvetica, Arial-Unicode, Arial, Sans-serif"></text></svg>